<svg width="457" height="210" viewBox="0 0 457 210" fill="none" xmlns="http://www.w3.org/2000/svg">
<path d="M136.147 33.0883C132.893 34.9407 129.839 37.2185 126.986 39.922C130.09 41.2737 132.943 42.9508 135.547 44.9533C138.2 46.9559 140.478 49.2838 142.38 51.9372C144.333 54.5906 145.835 57.5944 146.886 60.9486C147.987 64.2528 148.538 67.9074 148.538 71.9125C148.538 75.3168 147.937 78.5459 146.736 81.5998C145.584 84.6036 143.957 87.332 141.855 89.7851C139.802 92.1882 137.324 94.2408 134.42 95.9429C131.567 97.595 128.438 98.7465 125.033 99.3973C126.685 101.65 128.012 104.153 129.013 106.907C130.065 109.61 130.59 112.564 130.59 115.768C130.59 117.07 130.415 118.622 130.065 120.424C129.714 122.176 129.264 124.029 128.713 125.981C128.212 127.933 127.637 129.911 126.986 131.913C126.385 133.866 125.809 135.693 125.259 137.395C124.758 139.098 124.332 140.599 123.982 141.901C123.632 143.203 123.456 144.154 123.456 144.755C123.456 146.207 123.857 147.333 124.658 148.134C125.509 148.985 126.66 149.411 128.112 149.411C130.766 149.411 133.269 148.835 135.622 147.683C137.975 146.582 140.178 145.08 142.23 143.178C144.333 141.325 146.31 139.173 148.163 136.72C150.015 134.216 151.767 131.613 153.419 128.91C155.121 126.206 156.724 123.503 158.225 120.799C159.777 118.046 161.279 115.443 162.731 112.99L165.51 115.092C162.356 120.699 159.377 125.856 156.573 130.562C153.82 135.218 150.991 139.223 148.088 142.577C145.184 145.981 142.105 148.635 138.851 150.537C135.597 152.439 131.892 153.391 127.737 153.391C123.882 153.391 120.878 152.314 118.725 150.162C116.623 148.059 115.571 145.055 115.571 141.15C115.571 138.447 115.972 135.869 116.773 133.415C117.574 130.962 118.45 128.559 119.401 126.206C120.403 123.853 121.304 121.5 122.105 119.147C122.906 116.794 123.306 114.341 123.306 111.788C123.306 109.535 122.931 107.432 122.18 105.48C121.479 103.528 120.478 101.675 119.176 99.923C117.624 99.923 115.847 99.8479 113.844 99.6977C111.892 99.5475 110.014 99.2471 108.212 98.7965C106.46 98.346 104.983 97.6951 103.781 96.8441C102.58 95.993 101.979 94.8666 101.979 93.4648C101.979 92.2132 102.48 91.2119 103.481 90.461C104.482 89.66 105.959 89.2595 107.912 89.2595C110.165 89.2595 112.342 89.7851 114.445 90.8365C116.548 91.8377 118.625 93.1644 120.678 94.8165C123.582 94.1657 126.285 92.9892 128.788 91.287C131.291 89.5849 133.444 87.5573 135.246 85.2043C137.099 82.8013 138.525 80.1479 139.527 77.2442C140.578 74.3406 141.104 71.3618 141.104 68.3079C141.104 65.1539 140.678 62.2753 139.827 59.672C138.976 57.0186 137.775 54.6406 136.223 52.538C134.671 50.4353 132.843 48.608 130.741 47.056C128.638 45.454 126.335 44.1273 123.832 43.076C120.027 47.2312 116.548 52.0123 113.394 57.4191C110.24 62.7759 107.211 68.4581 104.307 74.4657C101.454 80.4233 98.675 86.531 95.9716 92.7889C93.2681 98.9968 90.4396 105.054 87.4858 110.962C84.5821 116.819 81.4532 122.351 78.0989 127.558C74.7947 132.765 71.1151 137.32 67.0599 141.225C63.0549 145.13 58.5742 148.209 53.6179 150.462C48.7117 152.715 43.1797 153.841 37.0219 153.841C32.2158 153.841 27.7101 153.09 23.5048 151.588C19.2994 150.087 15.6198 147.859 12.4658 144.905C9.31179 142.001 6.80862 138.397 4.95628 134.091C3.15399 129.786 2.25285 124.83 2.25285 119.222C2.25285 115.818 2.65336 112.013 3.45438 107.808C4.30545 103.603 5.63213 99.2221 7.43442 94.6663C9.2367 90.0605 11.5396 85.4296 14.3432 80.7737C17.1968 76.0678 20.6011 71.512 24.5561 67.1064C28.5612 62.7008 33.167 58.5706 38.3736 54.7157C43.6303 50.8608 49.5377 47.5066 56.0961 44.653C62.7044 41.7493 70.0137 39.4714 78.0238 37.8193C86.034 36.1672 94.8201 35.3412 104.382 35.3412C107.636 35.3412 110.865 35.6165 114.069 36.1672C117.274 36.6679 120.377 37.4188 123.381 38.4201C125.133 37.0684 126.961 35.7917 128.863 34.5902C130.766 33.3386 132.768 32.1621 134.871 31.0607L136.147 33.0883ZM35.1445 149.861C40.5514 149.861 45.3575 148.785 49.5628 146.632C53.7681 144.479 57.5729 141.576 60.9772 137.921C64.3815 134.216 67.4855 129.886 70.289 124.93C73.1426 119.923 75.8961 114.617 78.5495 109.009C81.2529 103.352 83.9563 97.4949 86.6598 91.4372C89.4133 85.3295 92.392 79.3219 95.5961 73.4144C98.8001 67.5069 102.355 61.8247 106.26 56.3678C110.165 50.9109 114.645 45.9546 119.702 41.499C115.096 40.1473 110.265 39.4714 105.208 39.4714C95.8965 39.4714 87.0352 40.723 78.6246 43.2262C70.264 45.7293 62.4791 49.1086 55.27 53.364C48.1109 57.6194 41.6277 62.5506 35.8204 68.1577C30.0631 73.7648 25.1318 79.6723 21.0266 85.8802C16.9715 92.038 13.8425 98.346 11.6397 104.804C9.43695 111.212 8.33556 117.345 8.33556 123.202C8.33556 126.857 8.96135 130.311 10.2129 133.566C11.5146 136.82 13.3419 139.648 15.6949 142.051C18.0479 144.454 20.8764 146.357 24.1806 147.759C27.4848 149.16 31.1394 149.861 35.1445 149.861ZM115.346 95.7927C114.095 94.9417 112.768 94.2157 111.366 93.615C109.964 93.0142 108.738 92.7138 107.686 92.7138C106.986 92.7138 106.51 92.814 106.26 93.0142C106.009 93.2145 105.884 93.4398 105.884 93.6901C105.884 94.1406 106.21 94.5161 106.86 94.8165C107.511 95.0668 108.312 95.2921 109.263 95.4924C110.265 95.6425 111.291 95.7427 112.342 95.7927C113.444 95.8428 114.445 95.8428 115.346 95.7927ZM168.513 123.878C168.413 124.479 168.338 125.08 168.288 125.681C168.238 126.281 168.213 126.882 168.213 127.483C168.213 129.285 168.463 131.012 168.964 132.664C169.515 134.266 170.291 135.693 171.292 136.945C172.343 138.146 173.62 139.098 175.122 139.798C176.674 140.499 178.426 140.85 180.378 140.85C186.937 140.85 193.27 138.622 199.378 134.166C205.485 129.711 211.568 122.652 217.626 112.99L220.179 115.242C216.875 120.749 213.52 125.405 210.116 129.21C206.712 132.965 203.308 136.019 199.903 138.372C196.549 140.725 193.245 142.427 189.991 143.478C186.737 144.529 183.633 145.055 180.679 145.055C178.526 145.055 176.248 144.755 173.845 144.154C171.442 143.553 169.214 142.552 167.162 141.15C165.159 139.748 163.507 137.871 162.205 135.518C160.854 133.165 160.178 130.236 160.178 126.732C160.178 122.977 160.829 119.373 162.13 115.918C163.382 112.414 165.034 109.16 167.087 106.156C169.139 103.152 171.492 100.424 174.146 97.9705C176.799 95.4673 179.477 93.3396 182.181 91.5874C184.934 89.8352 187.613 88.4835 190.216 87.5323C192.819 86.531 195.122 86.0304 197.125 86.0304C198.426 86.0304 199.753 86.2306 201.105 86.6311C202.456 87.0316 203.658 87.6574 204.709 88.5085C205.811 89.3596 206.687 90.486 207.338 91.8878C208.039 93.2896 208.389 94.9667 208.389 96.9192C208.389 99.5725 207.763 102.076 206.512 104.429C205.31 106.732 203.683 108.884 201.63 110.887C199.578 112.839 197.2 114.617 194.496 116.219C191.793 117.771 188.964 119.097 186.011 120.199C183.057 121.3 180.078 122.176 177.074 122.827C174.07 123.478 171.217 123.828 168.513 123.878ZM169.114 120.649C172.468 120.299 175.622 119.598 178.576 118.547C181.53 117.495 184.233 116.219 186.686 114.717C189.14 113.165 191.317 111.488 193.22 109.685C195.172 107.883 196.799 106.056 198.101 104.203C199.403 102.351 200.404 100.574 201.105 98.8716C201.806 97.1695 202.156 95.6425 202.156 94.2908C202.156 92.9391 201.781 91.8628 201.03 91.0617C200.329 90.2607 199.478 89.8602 198.476 89.8602C196.274 89.8602 193.795 90.6612 191.042 92.2633C188.288 93.8152 185.535 95.993 182.782 98.7965C180.028 101.55 177.425 104.804 174.972 108.559C172.569 112.314 170.616 116.344 169.114 120.649ZM257.351 112.239C256.55 110.486 255.924 108.659 255.474 106.757C255.073 104.854 254.873 102.877 254.873 100.824C254.873 98.1708 255.098 95.9429 255.549 94.1406C256.049 92.2883 256.65 90.8114 257.351 89.71C258.052 88.5586 258.803 87.7325 259.604 87.2319C260.455 86.7313 261.256 86.4809 262.007 86.4809C262.658 86.4809 263.258 86.6311 263.809 86.9315C264.41 87.1818 264.936 87.6324 265.386 88.2832C265.837 88.9341 266.187 89.7851 266.437 90.8365C266.738 91.8878 266.888 93.1894 266.888 94.7414C266.888 98.346 266.162 102.051 264.71 105.855C263.309 109.66 261.406 113.34 259.003 116.894C256.65 120.449 253.922 123.803 250.818 126.957C247.714 130.111 244.51 132.89 241.206 135.293C240.304 135.944 239.253 136.644 238.052 137.395C236.9 138.096 235.648 138.772 234.297 139.423C232.995 140.024 231.618 140.549 230.167 141C228.765 141.401 227.388 141.601 226.036 141.601C222.682 141.601 219.929 140.349 217.776 137.846C215.673 135.293 214.622 131.738 214.622 127.182C214.622 125.08 214.922 122.827 215.523 120.424C216.124 118.021 216.95 115.568 218.001 113.065C219.052 110.511 220.279 107.958 221.681 105.405C223.083 102.852 224.559 100.424 226.111 98.1207C227.713 95.7677 229.366 93.5649 231.068 91.5123C232.77 89.4597 234.447 87.6574 236.099 86.1055L239.403 88.2832C236.5 92.6888 233.996 96.9692 231.894 101.124C229.791 105.23 228.039 109.11 226.637 112.764C225.285 116.419 224.259 119.773 223.558 122.827C222.907 125.831 222.582 128.434 222.582 130.637C222.582 133.19 222.907 135.017 223.558 136.119C224.259 137.17 225.235 137.696 226.487 137.696C227.688 137.696 229.34 137.27 231.443 136.419C233.596 135.518 236.074 134.091 238.878 132.139C242.432 129.636 245.811 126.682 249.015 123.278C252.27 119.823 255.048 116.144 257.351 112.239ZM259.754 108.484C260.755 106.231 261.531 103.903 262.082 101.5C262.683 99.0469 262.983 96.7439 262.983 94.5912C262.983 93.0893 262.858 92.013 262.608 91.3621C262.357 90.7113 262.157 90.3358 262.007 90.2357C261.957 90.2357 261.757 90.3859 261.406 90.6863C261.056 90.9867 260.655 91.5373 260.205 92.3384C259.804 93.0893 259.429 94.1657 259.078 95.5675C258.778 96.9192 258.628 98.6714 258.628 100.824C258.628 102.076 258.703 103.402 258.853 104.804C259.053 106.206 259.353 107.432 259.754 108.484ZM277.101 123.878C277.001 124.479 276.926 125.08 276.876 125.681C276.826 126.281 276.801 126.882 276.801 127.483C276.801 129.285 277.051 131.012 277.552 132.664C278.102 134.266 278.878 135.693 279.879 136.945C280.931 138.146 282.207 139.098 283.709 139.798C285.261 140.499 287.014 140.85 288.966 140.85C295.524 140.85 301.857 138.622 307.965 134.166C314.073 129.711 320.156 122.652 326.213 112.99L328.766 115.242C325.462 120.749 322.108 125.405 318.704 129.21C315.299 132.965 311.895 136.019 308.491 138.372C305.136 140.725 301.832 142.427 298.578 143.478C295.324 144.529 292.22 145.055 289.266 145.055C287.114 145.055 284.836 144.755 282.433 144.154C280.03 143.553 277.802 142.552 275.749 141.15C273.747 139.748 272.095 137.871 270.793 135.518C269.441 133.165 268.765 130.236 268.765 126.732C268.765 122.977 269.416 119.373 270.718 115.918C271.969 112.414 273.622 109.16 275.674 106.156C277.727 103.152 280.08 100.424 282.733 97.9705C285.386 95.4673 288.065 93.3396 290.768 91.5874C293.522 89.8352 296.2 88.4835 298.803 87.5323C301.407 86.531 303.71 86.0304 305.712 86.0304C307.014 86.0304 308.341 86.2306 309.692 86.6311C311.044 87.0316 312.245 87.6574 313.297 88.5085C314.398 89.3596 315.274 90.486 315.925 91.8878C316.626 93.2896 316.976 94.9667 316.976 96.9192C316.976 99.5725 316.351 102.076 315.099 104.429C313.898 106.732 312.271 108.884 310.218 110.887C308.165 112.839 305.787 114.617 303.084 116.219C300.38 117.771 297.552 119.097 294.598 120.199C291.644 121.3 288.666 122.176 285.662 122.827C282.658 123.478 279.804 123.828 277.101 123.878ZM277.702 120.649C281.056 120.299 284.21 119.598 287.164 118.547C290.117 117.495 292.821 116.219 295.274 114.717C297.727 113.165 299.905 111.488 301.807 109.685C303.76 107.883 305.387 106.056 306.688 104.203C307.99 102.351 308.991 100.574 309.692 98.8716C310.393 97.1695 310.744 95.6425 310.744 94.2908C310.744 92.9391 310.368 91.8628 309.617 91.0617C308.916 90.2607 308.065 89.8602 307.064 89.8602C304.861 89.8602 302.383 90.6612 299.63 92.2633C296.876 93.8152 294.123 95.993 291.369 98.7965C288.616 101.55 286.012 104.804 283.559 108.559C281.156 112.314 279.204 116.344 277.702 120.649ZM373.598 115.092C372.847 116.194 371.946 117.695 370.895 119.598C369.894 121.45 368.717 123.478 367.365 125.681C366.014 127.833 364.512 130.036 362.86 132.289C361.258 134.542 359.48 136.569 357.528 138.372C355.625 140.174 353.548 141.651 351.295 142.802C349.042 143.954 346.639 144.529 344.086 144.529C342.684 144.529 341.357 144.304 340.106 143.854C338.854 143.453 337.753 142.802 336.802 141.901C335.85 141 335.099 139.899 334.549 138.597C333.998 137.245 333.723 135.668 333.723 133.866C333.723 131.413 334.198 128.86 335.15 126.206C336.151 123.503 337.302 120.9 338.604 118.396C339.906 115.893 341.207 113.615 342.509 111.563C343.81 109.46 344.762 107.783 345.362 106.531C345.963 105.28 346.264 104.203 346.264 103.302C346.264 102.651 346.038 102.076 345.588 101.575C345.187 101.074 344.662 100.599 344.011 100.148C343.41 99.6476 342.759 99.147 342.058 98.6464C341.407 98.0957 340.857 97.4448 340.406 96.6939C339.155 98.6964 337.878 100.724 336.576 102.777C335.425 104.529 334.173 106.506 332.822 108.709C331.47 110.862 330.168 112.99 328.917 115.092L326.213 112.99L342.284 87.8327L344.461 88.9591C344.361 89.2595 344.186 89.7351 343.936 90.3859C343.735 91.0367 343.635 91.7376 343.635 92.4886C343.635 93.0393 343.71 93.5899 343.861 94.1406C344.061 94.6413 344.436 95.1169 344.987 95.5675C346.99 97.3697 348.567 98.7715 349.718 99.7728C350.869 100.724 351.695 101.5 352.196 102.101C352.747 102.651 353.072 103.127 353.172 103.528C353.323 103.878 353.398 104.354 353.398 104.954C353.398 105.555 353.298 106.281 353.097 107.132C352.897 107.983 352.547 109.009 352.046 110.211C351.595 111.413 350.945 112.839 350.093 114.491C349.292 116.093 348.266 117.971 347.015 120.124C346.264 121.425 345.513 122.752 344.762 124.104C344.061 125.405 343.41 126.732 342.809 128.084C342.259 129.435 341.808 130.787 341.458 132.139C341.107 133.49 340.932 134.792 340.932 136.044C340.932 136.995 341.057 137.771 341.307 138.372C341.608 138.922 341.983 139.348 342.434 139.648C342.884 139.949 343.36 140.149 343.861 140.249C344.411 140.349 344.937 140.399 345.438 140.399C347.09 140.399 348.717 139.924 350.319 138.972C351.971 137.971 353.573 136.695 355.125 135.143C356.727 133.591 358.254 131.838 359.706 129.886C361.208 127.883 362.634 125.856 363.986 123.803C365.338 121.751 366.589 119.798 367.741 117.946C368.892 116.043 369.919 114.391 370.82 112.99L373.598 115.092ZM404.537 74.3906C404.537 75.3919 404.287 76.4432 403.786 77.5446C403.286 78.596 402.635 79.5472 401.834 80.3982C401.083 81.2493 400.232 81.9502 399.281 82.5009C398.33 83.0516 397.378 83.327 396.427 83.327C395.576 83.327 394.925 83.0266 394.475 82.4258C394.024 81.775 393.799 80.999 393.799 80.0979C393.799 79.2968 393.949 78.3456 394.249 77.2442C394.55 76.1429 395 75.1166 395.601 74.1653C396.202 73.1641 396.928 72.313 397.779 71.6121C398.63 70.9112 399.606 70.5608 400.708 70.5608C401.759 70.5608 402.66 70.9613 403.411 71.7623C404.162 72.5633 404.537 73.4394 404.537 74.3906ZM390.495 91.0617C389.844 92.3634 388.918 94.0906 387.716 96.2433C386.565 98.346 385.313 100.674 383.961 103.227C382.61 105.73 381.233 108.384 379.831 111.187C378.429 113.941 377.153 116.644 376.001 119.298C374.9 121.901 373.999 124.354 373.298 126.657C372.597 128.96 372.247 130.912 372.247 132.514C372.247 133.966 372.547 134.967 373.148 135.518C373.748 136.019 374.599 136.269 375.701 136.269C377.753 136.269 379.756 135.593 381.708 134.241C383.661 132.89 385.588 131.138 387.491 128.985C389.443 126.782 391.346 124.279 393.198 121.475C395.05 118.672 396.903 115.843 398.755 112.99L401.459 115.092C400.007 117.695 398.355 120.474 396.502 123.428C394.7 126.381 392.672 129.135 390.42 131.688C388.167 134.191 385.689 136.269 382.985 137.921C380.282 139.573 377.328 140.399 374.124 140.399C371.12 140.399 368.817 139.498 367.215 137.696C365.613 135.894 364.812 133.566 364.812 130.712C364.812 127.358 365.588 123.853 367.14 120.199C368.692 116.544 370.619 112.939 372.922 109.385C375.275 105.78 377.804 102.326 380.507 99.0218C383.26 95.7176 385.789 92.7138 388.092 90.0104L390.495 91.0617ZM404.462 123.878C404.362 124.479 404.287 125.08 404.237 125.681C404.187 126.281 404.162 126.882 404.162 127.483C404.162 129.285 404.412 131.012 404.913 132.664C405.464 134.266 406.24 135.693 407.241 136.945C408.292 138.146 409.569 139.098 411.071 139.798C412.623 140.499 414.375 140.85 416.327 140.85C422.886 140.85 429.219 138.622 435.326 134.166C441.434 129.711 447.517 122.652 453.575 112.99L456.128 115.242C452.824 120.749 449.469 125.405 446.065 129.21C442.661 132.965 439.256 136.019 435.852 138.372C432.498 140.725 429.194 142.427 425.939 143.478C422.685 144.529 419.581 145.055 416.628 145.055C414.475 145.055 412.197 144.755 409.794 144.154C407.391 143.553 405.163 142.552 403.111 141.15C401.108 139.748 399.456 137.871 398.154 135.518C396.803 133.165 396.127 130.236 396.127 126.732C396.127 122.977 396.778 119.373 398.079 115.918C399.331 112.414 400.983 109.16 403.035 106.156C405.088 103.152 407.441 100.424 410.094 97.9705C412.748 95.4673 415.426 93.3396 418.13 91.5874C420.883 89.8352 423.561 88.4835 426.165 87.5323C428.768 86.531 431.071 86.0304 433.074 86.0304C434.375 86.0304 435.702 86.2306 437.054 86.6311C438.405 87.0316 439.607 87.6574 440.658 88.5085C441.76 89.3596 442.636 90.486 443.286 91.8878C443.987 93.2896 444.338 94.9667 444.338 96.9192C444.338 99.5725 443.712 102.076 442.46 104.429C441.259 106.732 439.632 108.884 437.579 110.887C435.527 112.839 433.149 114.617 430.445 116.219C427.742 117.771 424.913 119.097 421.959 120.199C419.006 121.3 416.027 122.176 413.023 122.827C410.019 123.478 407.166 123.828 404.462 123.878ZM405.063 120.649C408.417 120.299 411.571 119.598 414.525 118.547C417.479 117.495 420.182 116.219 422.635 114.717C425.088 113.165 427.266 111.488 429.169 109.685C431.121 107.883 432.748 106.056 434.05 104.203C435.351 102.351 436.353 100.574 437.054 98.8716C437.754 97.1695 438.105 95.6425 438.105 94.2908C438.105 92.9391 437.729 91.8628 436.978 91.0617C436.278 90.2607 435.427 89.8602 434.425 89.8602C432.222 89.8602 429.744 90.6612 426.991 92.2633C424.237 93.8152 421.484 95.993 418.73 98.7965C415.977 101.55 413.374 104.804 410.92 108.559C408.517 112.314 406.565 116.344 405.063 120.649Z" fill="white"/>
</svg>
