<svg width="576" height="805" viewBox="0 0 576 805" fill="none" xmlns="http://www.w3.org/2000/svg">
<g filter="url(#filter0_d_6370_17007)">
<path d="M70.3487 676.033V657.938L74.209 653.354L78.0693 645.392V629.951L72.5201 618.611L70.3487 608.719L78.0693 598.586L82.1708 591.83L89.4089 587.005L93.9929 574.459L86.9962 566.497L78.0693 563.119L74.209 557.329L75.6566 543.335L82.1708 534.891L84.5835 528.136L86.9962 516.555L84.5835 508.352L86.9962 495.564L80.7232 487.844L74.209 480.365L75.6566 469.749L82.1708 461.063L84.5835 448.035L82.1708 440.797H75.6566L74.209 433.8L75.6566 423.908L74.209 415.463L71.3138 412.086V404.606L68.4185 399.298L64.0757 395.197V386.753L60.9392 380.48V370.346V361.902V351.527V342.359L64.0757 333.191L60.9392 327.642V318.715L64.0757 312.683V304.963L68.4185 300.861L76.1391 297.242L80.2407 292.899L83.3772 289.522L84.5835 284.214L89.4089 281.318V274.08L86.9962 268.773L83.3772 262.982L84.5835 255.503L80.2407 247.3L78.5518 239.338L81.447 230.411L83.3772 227.274L86.9962 223.173L89.4089 213.04V204.354L84.5835 198.322H78.5518L71.7963 195.186V186.983L69.3836 178.056L65.2821 173.954L63.1106 166.957L65.2821 158.513L71.7963 153.688L69.3836 146.208L65.2821 141.624L68.1773 135.351L61.1805 133.18V125.942L55.1488 121.84L52.7361 112.913L48.6346 109.536L45.7394 102.539L36.5712 97.9548L29.8157 92.4056H19.6824L13.1682 84.4438L10.7555 78.6534L5.44761 74.5518L4 62.7297L6.65395 54.7678L15.3396 51.1488L21.13 45.1171V41.7394L27.8855 40.533L32.2283 35.9489L36.5712 31.8474L41.8791 30.3998H51.5298L52.7361 23.8855L58.2853 21.7141L67.2122 24.8506L82.6534 21.7141V13.9935L91.339 10.3745H106.539L121.015 17.8538L133.561 21.7141L149.243 24.8506L161.065 21.7141L171.681 10.3745H182.056L188.57 3.37775L206.424 0H220.659L238.754 3.37775L264 10.3745L273.5 7.5L280 6.5L288 7.5L304 10.3745L315.5 14.2348L328 12L338.5 10.3745L347 12H351L357.5 10.3745L370.5 12L376 10.3745H381L387.5 13L394.5 12H402L418.5 14.2348L446.983 10.3745L460.011 14.2348L472.316 19.5427L485.103 16.8888L500.785 14.2348L523.706 19.5427L535.769 22.4379V36.6727L542.042 47.0473L551.693 50.1837V66.59L549.28 82.9962V103.021L558.931 121.358L551.693 133.904L558.931 141.624L553.623 156.583L555.794 169.611L566.893 172.507L562.309 196.633L549.28 202.665L553.623 220.519L551.693 229.446L558.931 239.579L555.794 265.153H546.626L544.214 278.664L549.28 295.071L537.941 299.172L541.318 307.858V322.334L546.626 345.496V371.794L537.941 391.337L544.214 408.949L541.318 427.286V450.93L544.214 470.231L530.461 489.291L534.563 506.904L546.626 511.488L554.347 504.733L557.001 496.529H564.48L571.718 511.488L564.48 529.101L557.001 538.51V557.57L564.48 573.253L562.55 594.967L550.969 605.583V628.021L560.378 642.979H534.563L539.629 666.141L527.325 675.55V708.121V741.175L534.563 764.337L510.677 777.365L496.925 796.667H477.382L446.5 782.432L435 769.5L422.5 761L407 759L389.5 764.819L362 769.5H342.5L325 764.819L308 758H285L269.5 761L232.722 764.819L211.008 754.686L204.494 741.658L169.992 730.801L156.24 741.658L139.593 737.315L129.459 717.772L119.326 701.366H102.196L87.72 694.128L82.6534 676.033H70.3487Z" fill="#808080"/>
</g>
<defs>
<filter id="filter0_d_6370_17007" x="0" y="0" width="575.719" height="804.667" filterUnits="userSpaceOnUse" color-interpolation-filters="sRGB">
<feFlood flood-opacity="0" result="BackgroundImageFix"/>
<feColorMatrix in="SourceAlpha" type="matrix" values="0 0 0 0 0 0 0 0 0 0 0 0 0 0 0 0 0 0 127 0" result="hardAlpha"/>
<feOffset dy="4"/>
<feGaussianBlur stdDeviation="2"/>
<feComposite in2="hardAlpha" operator="out"/>
<feColorMatrix type="matrix" values="0 0 0 0 0 0 0 0 0 0 0 0 0 0 0 0 0 0 0.25 0"/>
<feBlend mode="normal" in2="BackgroundImageFix" result="effect1_dropShadow_6370_17007"/>
<feBlend mode="normal" in="SourceGraphic" in2="effect1_dropShadow_6370_17007" result="shape"/>
</filter>
</defs>
</svg>
