<svg width="768" height="880" viewBox="0 0 768 880" fill="none" xmlns="http://www.w3.org/2000/svg">
<g filter="url(#filter0_d_6370_17005)">
<path d="M450.288 816.704L438.878 833.118L424.556 841.518L416.453 866.951L399.848 863.034L393.144 864.853L380.127 866.83L366.687 860.049L356.097 864.667L348.458 871.489L340.043 865.402L328.615 860.497L315.158 859.285L300.637 864.519L283.578 865.648L266.755 861.468L256.374 855.689L243.86 857.469L240.815 848.232L239.605 837.464L229.94 826.42L221.049 825.62L221.72 818.171L211.145 814.554L196.486 813.234L193.726 803.538L194.656 793.205L190.153 789.409L178.378 788.349L178.833 783.302L182.231 772.465L174.364 768.365L163.618 769.336L157.303 766.829L159.891 754.223L165.331 755.682L165.937 748.954L159.639 740.877L148.741 743.53L144.166 732.459L145.14 721.646L142.249 713.392L142.461 705.659L138.064 697.996L138.843 689.345L136.757 677.53L136.051 669.23L131.548 665.433L124.339 664.784L118.81 661.622L71.9522 657.403L54.6392 642.521L29.9876 628.432L27.2414 610.501L32.5619 599.837L27.093 590.623L27.2112 575.857L35.4391 567.877L45.7719 568.807L54.2448 566.179L59.8272 555.296L61.2334 539.677L43.2305 535.149L32.8907 526.224L33.0521 510.977L34.1771 498.482L44.3947 492.619L69.0919 518.997L68.562 511.314L77.2752 508.707L81.5719 501.342L79.0058 489.483L69.5864 483.791L66.7561 469.486L68.1622 453.866L73.3938 441.498L79.745 435.53L74.6269 427.802L73.0221 416.029L74.2984 401.852L77.9801 390.556L80.7268 384.262L81.9599 370.565L87.547 365.012L92.5044 363.763L93.9538 347.663L90.5107 332.092L91.679 319.116L100.128 314.062L107.858 311.609L114.933 308.37L107.152 303.309L96.8194 302.379L88.7096 295.592L87.8665 280.74L85.6536 273.031L79.2954 271.005L79.8579 264.757L84.2411 256.431L76.0448 250.606L72.7385 241.588L59.2819 240.376L54.034 234.09L52.7823 226.468L43.8867 220.338L35.2407 224.889L24.3601 221.971L22.1039 214.743L24.9542 201.918L28.9001 193.068L24.6783 186.148L15.7873 185.347L11.4357 179.868L4.59694 177.799L4.00119 170.963L8.08156 166.001L5.77511 151.258L7.84193 141.755L13.0975 131.811L21.443 133.289L27.3329 124.372L17.1469 116.43L17.9257 107.779L27.0956 102.791L37.2436 92.3193L42.0379 79.4275L52.7337 70.9429L60.4401 66.0651L65.0614 55.0957L76.1752 50.0402L75.3801 40.0366L79.7008 35.0962L92.5446 35.0413L103.536 39.4222L105.929 28.979L115.097 21.3257L122.351 24.1591L135.017 20.6967L143.452 23.8785L147.191 28.091L157.283 28.9996L163.637 25.6957L173.33 20.27L182.26 15.2601L189.469 15.9091L193.515 22.0872L202.779 24.1324L214.097 27.5738L223.557 30.1212L227.623 33.3941L235.072 34.0648L239.784 27.464L246.621 26.8682L254.683 28.8052L257.83 31.511L265.76 32.2249L278.256 33.3499L284.455 29.0631L292.839 24.7308L304.854 25.8125L317.41 20.8868L324.378 21.5141L333.221 17.4654L345.035 12.715L357.612 7.54898L367.527 5.05016L378.58 6.0453L386.003 1.62642L397.535 -5.76198e-05L401.187 5.17365L400.625 11.4213L405.914 14.5621L418.935 17.9147L425.858 16.3577L426.67 20.7912L436.523 21.6782L446.089 20.3592L456.227 23.4521L463.198 26.7443L468.859 31.1299L471.797 44.2334L471.105 51.9229L480.155 59.0359L489.42 63.746L490.494 67.9608L496.946 77.0202L508.569 79.7623L519.142 80.7141L532.776 85.333L546.233 86.5445L552.058 78.3481L558.796 65.3891L565.258 60.8837L577.508 56.6572L588.687 50.8808L597.768 44.1888L621.591 35.1903L654.752 38.1757L681.257 47.8292L697.061 60.6374L709.916 73.907L726.734 96.9807L747.034 105.591L753.233 125.529L763.344 147.756L761.614 166.98L747.154 193.052L726.784 204.057L725.659 216.552L708.016 224.169L706.718 238.587L687.975 236.9L663.777 241.988L655.751 255.8L668.212 268.066L671.184 294.253L669.713 310.593L676.994 318.516L667.42 336.065L673.403 358.406L682.041 370.084L671.066 384.358L679.056 403.245L672.995 416.75L676.676 429.678L675.573 441.933L684.168 454.092L677.559 465.609L663.473 468.702L658.066 480.327L666.548 488.358L670.208 501.526L664.363 512.628L657.935 530.217L643.381 518.24L631.881 501.526L610.659 488.367L604.559 507.682L601.726 539.16L609.386 556.323L612.569 574.777L606.357 589.964L604.67 608.707L612.046 626.328L614.028 644.675L611.367 674.231L613.092 698.127L603.847 717.401L609.825 734.411L600.537 754.166L590.846 762.256L581.109 768.163L565.97 766.8L558.492 782.599L543.995 790.257L529.723 806.171L517.811 822.783L501.711 821.333L486.241 815.58L470.622 814.174L450.288 816.704Z" fill="#808080"/>
</g>
<defs>
<filter id="filter0_d_6370_17005" x="0" y="0" width="767.344" height="879.489" filterUnits="userSpaceOnUse" color-interpolation-filters="sRGB">
<feFlood flood-opacity="0" result="BackgroundImageFix"/>
<feColorMatrix in="SourceAlpha" type="matrix" values="0 0 0 0 0 0 0 0 0 0 0 0 0 0 0 0 0 0 127 0" result="hardAlpha"/>
<feOffset dy="4"/>
<feGaussianBlur stdDeviation="2"/>
<feComposite in2="hardAlpha" operator="out"/>
<feColorMatrix type="matrix" values="0 0 0 0 0 0 0 0 0 0 0 0 0 0 0 0 0 0 0.25 0"/>
<feBlend mode="normal" in2="BackgroundImageFix" result="effect1_dropShadow_6370_17005"/>
<feBlend mode="normal" in="SourceGraphic" in2="effect1_dropShadow_6370_17005" result="shape"/>
</filter>
</defs>
</svg>
