<svg width="829" height="779" viewBox="0 0 829 779" fill="none" xmlns="http://www.w3.org/2000/svg">
<g filter="url(#filter0_d_6370_17003)">
<path d="M9.06663 713.912V742.382L28.8506 748.654H69.6249H114.501L161.065 755.893L177.23 753.48H213.421L245.027 757.823L264.328 755.893L307.274 757.823L340.086 760.235H366.626L394.372 764.819L432.733 762.648L460.479 764.819L477.609 762.648L504.631 764.819L527.793 762.648L553.608 770.127L577.011 766.991L599.208 770.127L624.782 766.991H642.154H663.385L677.138 760.235L671.588 750.585L677.138 735.626L686.788 743.829H712.845H739.626L754.102 735.626V697.023L739.626 682.065V647.805L733.594 621.748L725.391 610.891V590.141L722.979 570.599L708.02 549.367V530.307L705.366 498.218L708.02 462.511L716.464 436.212L720.325 419.806L728.286 407.019H735.766L742.762 409.673L752.413 407.019V391.578L747.105 378.067L755.067 366.486L766.165 359.972L770.508 345.496L761.34 328.124L755.067 316.785V303.515L761.34 298.69L766.165 284.214L770.508 276.252L766.165 263.465L770.508 255.503L777.264 244.404L789.568 238.855L792.705 227.757V207.008L785.949 196.875L789.568 188.672L782.089 180.227L777.264 170.576L782.089 158.996L789.568 150.31L800.908 145.002L807.905 140.659V123.77L812.73 110.501V84.6851L817.314 76.7232V49.7012L824.794 35.2251L817.314 19.784H746.864L653.493 17.13L570.015 13.2697L473.266 6.51424L372.657 3.13648L301.966 0H254.677L232.722 6.51424L200.151 33.0537L179.884 43.6695L149.967 81.5486L130.424 88.5453L120.291 97.7135L117.637 112.672L103.161 109.777L105.333 100.367L94.4755 95.5421L92.0628 81.5486H73.7264L64.7995 92.4056L56.3551 107.606L45.9806 95.5421L41.3965 81.5486H32.7109L26.1967 132.939L20.8888 217.141L15.5809 315.82L9.06663 536.58V603.17L25.4728 611.373L28.3681 639.601L14.1333 659.868L4 671.69L9.06663 699.195V713.912Z" fill="#808080"/>
</g>
<defs>
<filter id="filter0_d_6370_17003" x="0" y="0" width="828.793" height="778.127" filterUnits="userSpaceOnUse" color-interpolation-filters="sRGB">
<feFlood flood-opacity="0" result="BackgroundImageFix"/>
<feColorMatrix in="SourceAlpha" type="matrix" values="0 0 0 0 0 0 0 0 0 0 0 0 0 0 0 0 0 0 127 0" result="hardAlpha"/>
<feOffset dy="4"/>
<feGaussianBlur stdDeviation="2"/>
<feComposite in2="hardAlpha" operator="out"/>
<feColorMatrix type="matrix" values="0 0 0 0 0 0 0 0 0 0 0 0 0 0 0 0 0 0 0.25 0"/>
<feBlend mode="normal" in2="BackgroundImageFix" result="effect1_dropShadow_6370_17003"/>
<feBlend mode="normal" in="SourceGraphic" in2="effect1_dropShadow_6370_17003" result="shape"/>
</filter>
</defs>
</svg>
