<svg width="678" height="900" viewBox="0 0 678 900" fill="none" xmlns="http://www.w3.org/2000/svg">
<g filter="url(#filter0_d_6370_17019)">
<path d="M4 268.588V308.716L12.5606 318.881L21.1212 336.538V370.78L8.81532 395.926L4 417.863L21.1212 440.334L30.2168 455.315L46.2679 466.016L56.4335 493.838L40.9175 511.494L21.1212 518.985L12.5606 531.826L15.7708 562.858L30.2168 581.584L35.5671 596.565L40.9175 622.247L35.5671 640.438L40.9175 668.795L27.0066 685.916L12.5606 702.502L15.7708 726.044L30.2168 745.305L35.5671 774.197L30.2168 790.248H15.7708L12.5606 805.764L15.7708 827.701L12.5606 846.427L6.14015 853.917L27.8633 865L56.8633 853.917L84.8633 852L107.863 846.427L129.363 834H162.363L186.863 859L195.863 884.5L214.363 891.5L243.863 884.5L258.363 863L284.863 853.917L315.863 852L343.863 863L372.863 870.5L401.363 876.5H429.863L448.863 860.5L478.863 863L497.863 850.5L523.363 839.5L545.363 842L570.863 856.5L594.863 869L613.863 863L606.451 819.14V766.706L612.871 723.904L582.374 681.636L591.47 642.578L618.221 632.412L635.343 647.393L641.228 665.585H657.814L673.865 632.412L657.814 593.355L641.228 572.488V530.221L657.814 495.443L653.534 447.29L627.852 423.748V373.99L648.718 340.818H591.47L602.705 289.454L575.419 268.588V196.358V123.058L591.47 71.6946L538.501 42.8027L508.004 -0.000183105H464.666L396.181 31.567L364.079 71.6946L315.926 94.1662L301.48 123.058L224.97 147.135L194.473 123.058L157.555 132.689L135.084 176.027L112.612 212.409H74.6248L42.5226 228.46L31.2868 268.588H4Z" fill="#808080"/>
</g>
<defs>
<filter id="filter0_d_6370_17019" x="0" y="0" width="677.863" height="899.5" filterUnits="userSpaceOnUse" color-interpolation-filters="sRGB">
<feFlood flood-opacity="0" result="BackgroundImageFix"/>
<feColorMatrix in="SourceAlpha" type="matrix" values="0 0 0 0 0 0 0 0 0 0 0 0 0 0 0 0 0 0 127 0" result="hardAlpha"/>
<feOffset dy="4"/>
<feGaussianBlur stdDeviation="2"/>
<feComposite in2="hardAlpha" operator="out"/>
<feColorMatrix type="matrix" values="0 0 0 0 0 0 0 0 0 0 0 0 0 0 0 0 0 0 0.25 0"/>
<feBlend mode="normal" in2="BackgroundImageFix" result="effect1_dropShadow_6370_17019"/>
<feBlend mode="normal" in="SourceGraphic" in2="effect1_dropShadow_6370_17019" result="shape"/>
</filter>
</defs>
</svg>
