<svg width="627" height="627" viewBox="0 0 627 627" fill="none" xmlns="http://www.w3.org/2000/svg">
<g filter="url(#filter0_d_6358_3885)">
<path d="M518.515 15.8394L512.064 11.9635H492.064L473.354 13.1991L457.225 16.582L429.484 17.7371L415.295 12.185L402.948 9.74803L391.973 12.185L362.34 9.74803L352.188 2.43701L340.664 0L307.464 15.8394L264.66 7.53257L225.83 13.7766H202.604L183.25 11.9635L166.476 12.704L155.508 14.0242L142.282 15.1793L140.347 18.0692L128.411 19.3069H109.379L102.605 20.5445L105.831 22.8548L99.3792 24.0924L89.0566 22.8548L75.001 25.0415L70.4828 29.5824H57.5735L49.8279 34.6683L39.8232 37.9378L32.4004 44.1135V50.1076L26.5912 54.4669L22.073 60.0977L23.0412 64.8204L17.5547 65.9102L11.1001 68.4531L8.19552 73.539L4.67824 79.3514L8.19552 88.4334L14.6502 93.156L22.3957 98.2419L17.8775 101.875L14.6502 106.961L6.25912 113.681V120.765L14.6502 125.488L19.1825 130.937L14.6502 135.841V140.927L22.3957 144.015L24.9776 148.737L31.1095 152.007L27.5594 157.456L19.7944 159.454L12.0683 161.997L6.25912 165.993L4 171.079L9.48644 175.075L14.6502 173.622L21.7503 176.165L26.5912 179.616V191.967L33.0459 198.87L29.8186 205.409L39.1778 212.856L44.3415 221.756L39.1778 238.104L44.3415 245.914L58.5417 251L51.7643 256.086L50.1507 261.535L58.5417 266.258V276.066L63.6726 282.06L51.7643 288.236L46.2451 295.138L51.7643 302.585L66.9 305.673L70.7728 314.937L63.6726 321.657L59.4771 328.56L63.6726 337.642L74.0001 341.638L70.7728 349.811L63.6726 352.899L59.4771 361.073L70.7728 364.343L74.0001 371.971L70.7728 381.235L77.2274 385.231H91.1049L96.5913 394.313V404.848H77.2274L63.6726 397.946H51.7643L46.2451 404.848L51.7643 412.658L63.6726 417.018V427.19L74.0001 431.912L66.9 444.264V454.072L70.45 463.881L80.7774 467.695L77.2274 473.871L91.4276 481.136V492.307L80.7774 503.296L86.2639 508.019H106.919L111.437 516.556L102.723 522.368L106.919 527.272L126.605 530.724L124.024 539.806L132.092 546.889L124.024 554.882L132.092 560.694V570.139L126.605 577.223L118.214 583.581L111.114 592.117V598.293L124.024 602.108L138.546 603.742L150.488 610.281L162.429 614.822H179.856L192.443 619L208.579 614.822L222.134 613.369L258.075 598.293L274.538 583.581L317.067 592.117L354.657 604.832H385.469L397.088 599.928L410.965 598.293V593.752L415.483 588.121L426.779 582.672H436.461L449.047 584.67L454.534 580.311L457.116 575.043L461.311 569.594L475.834 566.688L482.612 562.874L490.68 559.241L500.362 557.061L510.689 559.241L520.694 562.874H532.312L537.799 557.061L544.576 550.704L553.29 545.436L564.586 540.35V533.811L577.172 531.269H588.79L595.568 526.001L605.25 522.732V516.374L600.731 513.286L605.25 509.29L615.254 506.202V497.665L605.25 489.492L598.15 486.404V479.683L608.154 475.687V469.693L605.25 460.793L595.568 454.254L583.627 449.713L577.172 443.355V437.543L583.627 431.912L592.663 427.008V418.834L577.172 414.838L574.268 407.391L579.754 397.946L583.627 388.319L574.268 379.782L577.172 370.7L588.79 363.979L574.268 355.442L570.717 348.177L574.268 340.185L582.336 332.556V327.652L577.172 324.019L582.336 316.753L579.754 309.669L583.627 294.048L593.309 281.879L588.79 266.258V252.271L583.627 238.104L572.977 233.381V224.844L561.035 218.85L542.64 215.944V204.501L550.385 199.778V190.878L537.799 179.616L540.703 169.444L537.799 157.274L550.385 151.28L553.29 144.015L561.358 126.759L566.845 94.7907L583.627 78.4433L605.573 74.6288L623 62.6407V45.7483L583.627 31.0356L561.358 27.2211L556.257 16.1694L537.225 16.582L518.515 15.8394Z" fill="#808080"/>
</g>
<defs>
<filter id="filter0_d_6358_3885" x="0" y="0" width="627" height="627" filterUnits="userSpaceOnUse" color-interpolation-filters="sRGB">
<feFlood flood-opacity="0" result="BackgroundImageFix"/>
<feColorMatrix in="SourceAlpha" type="matrix" values="0 0 0 0 0 0 0 0 0 0 0 0 0 0 0 0 0 0 127 0" result="hardAlpha"/>
<feOffset dy="4"/>
<feGaussianBlur stdDeviation="2"/>
<feComposite in2="hardAlpha" operator="out"/>
<feColorMatrix type="matrix" values="0 0 0 0 0 0 0 0 0 0 0 0 0 0 0 0 0 0 0.25 0"/>
<feBlend mode="normal" in2="BackgroundImageFix" result="effect1_dropShadow_6358_3885"/>
<feBlend mode="normal" in="SourceGraphic" in2="effect1_dropShadow_6358_3885" result="shape"/>
</filter>
</defs>
</svg>
