<svg width="680" height="819" viewBox="0 0 680 819" fill="none" xmlns="http://www.w3.org/2000/svg">
<g filter="url(#filter0_d_6370_17001)">
<path d="M178.919 804.87L137.179 810.178L129.217 771.334L123.186 743.588L121.014 719.944L111.605 702.331V677.239L105.091 663.969L81.4463 636.706L57.8021 614.027L47.6688 597.138L57.8021 584.592H106.539L118.602 571.564V552.745V521.38L108.71 486.396L103.161 457.927L95.6817 432.111V405.813L78.0692 391.578L58.7677 375.172L32.7108 354.423L3.99989 330.296L16.5453 321L35.8467 315.5H78.0692L118.602 306.41L104.367 290.004L85.7892 266.36L69.3829 245.128L56.5957 228.722L47.9101 212.316L35.8467 199.529L23.7833 192.049L16.5453 179.745L12.685 167.681L16.5453 159.961H47.9101H66.4877L73.4845 143.554L81.4464 136.075L95.4399 129.561L97.6113 119.669L103.643 109.777L113.776 106.882L124.151 102.056L127.287 90.958L136.697 83.2374H148.76L157.446 77.2057L166.855 67.0725L178.919 59.1106H199.185L202.322 73.1042L210.766 83.2374V67.0725L216.798 55.0091L220.417 47.0472H231.515V35.2251L240.924 26.2982L250.575 23.6443L252.988 13.7523L264.327 17.6126V6.0317L269.877 0L286.283 6.0317L297.864 9.40945H312.581L316.441 3.37775H328.505L343.222 9.40945L355.527 3.37775L371.209 0H385.444V13.7523L388.822 25.3331L402.574 33.0537L423.323 41.2568H453.482L455.653 51.1488H468.923L478.573 65.1423H496.91L508.249 73.1042L510.421 82.2724L522.484 87.8215L533.1 91.4406V101.333L553.849 109.053L574.116 115.809L587.144 126.183V141.383L591.004 151.275L603.792 157.307L608.617 179.745L601.379 205.802V222.208L608.617 231.135H618.026L628.883 242.957V252.125L639.258 258.639L636.845 274.322V292.175L639.258 304.48V319.198L647.461 323.54L651.804 334.397L667.486 337.293L675.207 348.873L660.731 372.276L645.048 387.959L639.258 413.051L618.75 424.873L603.792 447.552L588.592 452.86L581.354 476.745L565.43 487.12L591.487 512.212L589.074 536.58L565.43 552.745L595.588 571.564L582.56 580.732L578.941 600.998L585.455 616.198L570.014 630.916V658.661L576.287 684.96L592.934 721.15V752.756L601.379 774.711L567.36 782.432L531.894 792.565L406.193 796.425L178.919 804.87Z" fill="#808080"/>
</g>
<defs>
<filter id="filter0_d_6370_17001" x="0" y="0" width="679.207" height="818.178" filterUnits="userSpaceOnUse" color-interpolation-filters="sRGB">
<feFlood flood-opacity="0" result="BackgroundImageFix"/>
<feColorMatrix in="SourceAlpha" type="matrix" values="0 0 0 0 0 0 0 0 0 0 0 0 0 0 0 0 0 0 127 0" result="hardAlpha"/>
<feOffset dy="4"/>
<feGaussianBlur stdDeviation="2"/>
<feComposite in2="hardAlpha" operator="out"/>
<feColorMatrix type="matrix" values="0 0 0 0 0 0 0 0 0 0 0 0 0 0 0 0 0 0 0.25 0"/>
<feBlend mode="normal" in2="BackgroundImageFix" result="effect1_dropShadow_6370_17001"/>
<feBlend mode="normal" in="SourceGraphic" in2="effect1_dropShadow_6370_17001" result="shape"/>
</filter>
</defs>
</svg>
