<svg width="657" height="650" viewBox="0 0 657 650" fill="none" xmlns="http://www.w3.org/2000/svg">
<g filter="url(#filter0_d_6370_17011)">
<path d="M252.223 633.397H302.989H304.17L327.192 628.674H373.531H393.896H429.314L456.173 624.837L493.067 621.591L520.812 624.837L544.424 623.067H565.675L594.6 624.837L626.771 620.705L643.5 578L631.789 541.5L616.146 504V464.5L631.789 439L643.5 406L653 365L643.5 329L647 307.5L631.789 287.183L616.146 291.61L590.763 287.183L577.776 277.443L560.362 266.818L564.789 251.175L552.393 231.695L547.08 208.673L552.393 195.096L547.08 160.858V145.51L552.393 123.669L524.354 116.29L531.437 106.845V90.3166L497.199 79.9863L483.918 60.2111L462.962 44.568L428.724 54.8983L395.667 44.568H347.852L310.368 54.8983L251.338 44.568L216.805 34.2377H189.946L159.84 44.568L125.603 34.2377V15.6431L105.828 24.7928L92.2505 15.6431L83.9863 0L65.3917 9.44487V34.2377L49.7486 15.6431V44.568L34.1055 49.8807L4 86.1845V237.893V324.963L14.3303 444.499L22.8897 519.173L29.0879 590.895L49.7486 641.661L103.761 633.397H183.748H252.223Z" fill="#808080"/>
</g>
<defs>
<filter id="filter0_d_6370_17011" x="0" y="0" width="657" height="649.661" filterUnits="userSpaceOnUse" color-interpolation-filters="sRGB">
<feFlood flood-opacity="0" result="BackgroundImageFix"/>
<feColorMatrix in="SourceAlpha" type="matrix" values="0 0 0 0 0 0 0 0 0 0 0 0 0 0 0 0 0 0 127 0" result="hardAlpha"/>
<feOffset dy="4"/>
<feGaussianBlur stdDeviation="2"/>
<feComposite in2="hardAlpha" operator="out"/>
<feColorMatrix type="matrix" values="0 0 0 0 0 0 0 0 0 0 0 0 0 0 0 0 0 0 0.25 0"/>
<feBlend mode="normal" in2="BackgroundImageFix" result="effect1_dropShadow_6370_17011"/>
<feBlend mode="normal" in="SourceGraphic" in2="effect1_dropShadow_6370_17011" result="shape"/>
</filter>
</defs>
</svg>
