<svg width="637" height="800" viewBox="0 0 637 800" fill="none" xmlns="http://www.w3.org/2000/svg">
<g filter="url(#filter0_d_6370_17013)">
<path d="M631.427 59.6042L630.591 7.68932e-05L599.925 6.18652L583.584 23.1865L570.584 43.6865L552.584 59.6042L537.584 49.1865L514.584 40.6865L493.584 38.1865L482.084 43.6865L482.084 54.1865L489.584 65.6865L478.084 73.1865L458.584 73.1865L439.584 65.6865L430.084 54.1865L420.584 46.6865L407.584 43.6865L398.084 54.1865L398.084 65.6865L392.584 78.1865L372.084 85.1865L354.084 81.1865L346.584 69.1865L339.584 57.6865L325.584 54.1865L310.584 65.6865L298.584 61.6865L298.584 50.6865L293.084 40.6865L293.084 34.1865L290.584 29.1865L282.584 29.1865L277.084 38.1865L272.084 43.6865L265.084 50.6865L265.084 59.6865L260.584 65.6865L251.084 69.6865L236.584 69.6865L232.584 61.6865L236.584 55.1865L234.584 49.1865L227.084 40.6865L221.084 34.1865L217.084 29.1865L210.584 26.6865L205.584 34.1865L205.584 40.6865L200.084 43.6865L198.584 50.6865L194.084 55.1865L194.084 59.6865L187.584 61.6865L179.084 59.6865L172.084 55.1865L168.584 49.1865L162.084 43.6865L153.584 43.6865L147.084 38.1865L145.084 29.1865L142.584 25.6865L135.084 29.1865L130.584 36.1865L130.584 43.6865L128.584 52.1865L120.084 55.1865L114.084 52.1865L107.084 52.1865L103.584 57.6865L103.584 65.1865L100.084 73.6865L89.084 81.6865L73.584 81.6865L66.584 73.6865L56.584 69.1865L51.084 61.6865L40.584 65.1865L30.084 65.1865L23.084 61.6865L16.8258 69.1865L12.084 81.6865L20.584 95.6865L20.584 111.187L16.8258 126.187L20.584 141.687L33.6043 148.687L33.6043 162.187L16.8258 169.187L4.00063 183.687L7.58398 197.187L20.584 201.687L44.7175 210.187L62.9145 241.187L73.9303 272.187L62.9145 301.187L33.6043 316.687L4.00063 361.038L16.8258 381.638L32.4238 398.111L32.7536 421.612L44.7175 438.478L33.2267 455.331L33.6043 482.238L26.6756 507.204L11.1322 523.433L15.4095 540.066L38.1656 547.922L62.9145 553.707L73.1752 564.464L73.548 591.03L63.6554 606.499L73.9303 618.278L99.9161 625.748L112.794 650.095L130.822 666.876L146.011 683.014L135.815 705.641L143.36 724.612L136.226 734.932L121.838 747.057L119.376 773.323L144.273 789.666L187.857 783.263L230.714 782.662L293.463 787.572L309.806 770.65L324.765 770.441L336.724 786.965L410.794 791.717L447.548 788.476L468.977 788.175L532.858 787.279L558.631 750.807L582.615 702.096L589.377 665.21L618.062 634.489L627.663 598.244L616.91 552.405L616.117 495.866L615.275 435.922L600.541 394.568L599.925 350.631L591.478 296.244L606.321 258.903L605.704 214.966L589.891 183.166L589.184 132.758L610.916 125.299L632.058 104.563L631.427 59.6042Z" fill="#808080"/>
</g>
<defs>
<filter id="filter0_d_6370_17013" x="0" y="0" width="636.059" height="799.717" filterUnits="userSpaceOnUse" color-interpolation-filters="sRGB">
<feFlood flood-opacity="0" result="BackgroundImageFix"/>
<feColorMatrix in="SourceAlpha" type="matrix" values="0 0 0 0 0 0 0 0 0 0 0 0 0 0 0 0 0 0 127 0" result="hardAlpha"/>
<feOffset dy="4"/>
<feGaussianBlur stdDeviation="2"/>
<feComposite in2="hardAlpha" operator="out"/>
<feColorMatrix type="matrix" values="0 0 0 0 0 0 0 0 0 0 0 0 0 0 0 0 0 0 0.25 0"/>
<feBlend mode="normal" in2="BackgroundImageFix" result="effect1_dropShadow_6370_17013"/>
<feBlend mode="normal" in="SourceGraphic" in2="effect1_dropShadow_6370_17013" result="shape"/>
</filter>
</defs>
</svg>
