<svg width="569" height="838" viewBox="0 0 569 838" fill="none" xmlns="http://www.w3.org/2000/svg">
<g filter="url(#filter0_d_6370_17023)">
<path d="M501.406 789.729L493.069 810.57L472.692 814.275L460.187 829.558H433.788L420.357 804.549L379.601 795.286L370.802 767.498L324.488 762.867L309.205 741.099L295.774 717.48L271.228 707.754L260.112 689.691H220.283L198.052 677.65H173.506L145.255 664.682L109.13 652.641L78.5634 658.661L64.6693 646.62V623L46.6071 610.032H36.8812V576.223L27.1554 557.235L3.9986 545.656V524.815L21.1346 509.532V491.006V465.997L46.6071 457.198V436.356V404.4L58.6486 386.801L46.6071 356.697V316.404L58.6486 300.195L46.6071 282.596L51.7015 256.66L66.5219 231.651L51.7015 220.072L46.6071 185.337V157.549L21.1346 133.466L29.9342 111.699L21.1346 80.2054L29.9342 47.3228L21.1346 13.5139L4.92487 3.78809L16.6543 0H29.9342L43.6543 3.78809L55.6543 11.0825L74.1636 7.43527H86.1543L96.1543 3.78809H110.654L117.654 11.0825L134.154 14.7296L153.154 18.5L169.154 14.7296L183.154 11.0825L198.154 8.5L212.641 14.7296L240.154 8.5L262.654 11.0825L281.88 18.3768L300.154 29.5L326.654 34.5L351.119 22.024L371.654 14.7296H399.654L420.357 25.6712L450.654 34.5L470.154 40.5L489.596 29.3184L508.654 14.7296L538.154 19.5L558.835 32.9656L551.888 71.4058L564.855 109.383V137.171L551.888 183.485V220.072L537.994 247.86L544.941 276.575V305.289L537.994 340.024V379.391L544.941 428.946L537.994 459.513L544.941 486.375V525.742L526.415 535.467L520.858 551.677L510.669 566.034L520.858 587.802L515.763 622.074L505.574 636.894L526.415 641.525V665.608L501.406 675.797L515.763 694.323L501.406 717.016L475.933 705.438L454.629 728.595L475.933 737.857L493.069 728.595L505.574 737.857L501.406 763.793L487.975 777.687L501.406 789.729Z" fill="#808080"/>
</g>
<defs>
<filter id="filter0_d_6370_17023" x="0" y="0" width="568.855" height="837.558" filterUnits="userSpaceOnUse" color-interpolation-filters="sRGB">
<feFlood flood-opacity="0" result="BackgroundImageFix"/>
<feColorMatrix in="SourceAlpha" type="matrix" values="0 0 0 0 0 0 0 0 0 0 0 0 0 0 0 0 0 0 127 0" result="hardAlpha"/>
<feOffset dy="4"/>
<feGaussianBlur stdDeviation="2"/>
<feComposite in2="hardAlpha" operator="out"/>
<feColorMatrix type="matrix" values="0 0 0 0 0 0 0 0 0 0 0 0 0 0 0 0 0 0 0.25 0"/>
<feBlend mode="normal" in2="BackgroundImageFix" result="effect1_dropShadow_6370_17023"/>
<feBlend mode="normal" in="SourceGraphic" in2="effect1_dropShadow_6370_17023" result="shape"/>
</filter>
</defs>
</svg>
