<svg width="813" height="860" viewBox="0 0 813 860" fill="none" xmlns="http://www.w3.org/2000/svg">
<g filter="url(#filter0_d_6370_17021)">
<path d="M471.716 823.821L449.874 851.151L401.926 851.151L387.426 818.955L365.426 798.778L335.426 798.778L305.926 790.778L262.926 780.278L232.926 763.278L206.926 745.778L174.426 745.778L136.926 757.278L87.688 757.278L61.9258 765.278L14.7029 763.157L4.0008 717.588L4.98922 689.466L26.8907 682.309L48.4634 679.459L73.0535 673.225L87.688 650.67L112.079 613.077L127.428 563.455L142.917 525.018L154.028 488.26L174.479 456.741L164.439 425.983L154.064 391.31L138.969 346.178L123.32 294.934L106.568 254.89L102.265 224.157L98.3858 181.372L95.233 143.166L92.6653 113.559L95.0135 87.1408L90.499 62.4336L81.8568 44.0883L82.7504 23.7119L87.5048 6.25147L98.1355 -1.2159e-05L135.728 24.3909L157.994 38.8378L179.138 24.6153L194.497 21.8426L216.334 24.9171L226.629 14.7497L241.551 7.58428L255.948 11.9944L272.135 14.2787L284.524 3.41601L301.806 1.47984L316.265 10.861L331.365 10.3861L350.523 5.55824L371.173 5.39675L395.463 21.157L388.34 40.368L390.581 59.0799L403.152 39.7055L419.762 29.9376L430.291 23.2093L443.593 31.8399L452.787 17.6706L471.006 14.2886L484.637 18.6126L495.221 8.63284L505.81 22.0778L514.816 8.19764L526.158 5.28371L541.131 25.2713L552.384 38.3255L570.023 49.7705L579.341 45.5432L593.799 54.9243L606.748 73.5985L626.186 75.938L647.609 84.0851L664.67 95.1548L653.975 111.637L649.018 128.144L659.497 148.092L677.986 174.06L714.132 197.512L709.042 211.057L724.947 221.376L725.632 245.653L747.608 259.912L755.008 278.273L750.481 290.95L760.624 306.982L770.533 319.575L762.841 331.431L781.705 356.82L800.742 380.677L808.29 403.243L796.469 421.461L793.404 436.319L804.039 453.492L792.374 484.137L763.435 509.739L750.677 529.402L752.41 545.73L763.688 553.048L767.507 575.66L760.377 586.648L767.746 602.524L752.658 619.444L738.774 640.842L732.097 657.466L720.652 675.105L727.107 686.69L723.869 703.079L740.414 718.745L740.661 738.629L705.112 755.421L674.12 762.022L647.667 787.593L613.894 785.814L578.329 801.363L555.984 795.905L528.734 818.904L501.581 818.955L471.716 823.821Z" fill="#808080"/>
</g>
<defs>
<filter id="filter0_d_6370_17021" x="0" y="0" width="812.289" height="859.151" filterUnits="userSpaceOnUse" color-interpolation-filters="sRGB">
<feFlood flood-opacity="0" result="BackgroundImageFix"/>
<feColorMatrix in="SourceAlpha" type="matrix" values="0 0 0 0 0 0 0 0 0 0 0 0 0 0 0 0 0 0 127 0" result="hardAlpha"/>
<feOffset dy="4"/>
<feGaussianBlur stdDeviation="2"/>
<feComposite in2="hardAlpha" operator="out"/>
<feColorMatrix type="matrix" values="0 0 0 0 0 0 0 0 0 0 0 0 0 0 0 0 0 0 0.25 0"/>
<feBlend mode="normal" in2="BackgroundImageFix" result="effect1_dropShadow_6370_17021"/>
<feBlend mode="normal" in="SourceGraphic" in2="effect1_dropShadow_6370_17021" result="shape"/>
</filter>
</defs>
</svg>
