<svg width="684" height="937" viewBox="0 0 684 937" fill="none" xmlns="http://www.w3.org/2000/svg">
<g filter="url(#filter0_d_6370_17009)">
<path d="M237.49 43.7334L227.088 60.8036L206.942 64.5503L191.267 64.0851L175.478 59.2717L159.32 58.7921L148.428 76.0891L135.138 92.8322L121.127 101.347L114.611 117.567L99.418 117.116L90.0534 123.597L80.8656 132.255L72.7811 152.532L79.7704 169.153L71.7002 188.947L74.8572 212.695L73.9768 242.358L77.0574 260.553L85.4792 277.699L84.9209 296.51L79.6323 312.042L83.9187 330.272L92.5961 346.943L91.6584 378.536L86.7305 398.182L86.2437 414.581L80.8836 432.525L75.7167 443.957L80.1606 456.882L89.11 464.389L84.4112 476.318L70.5361 480.251L64.6315 492.145L73.9415 503.766L73.5764 516.065L78.0274 528.748L72.789 542.593L81.8986 560.966L71.8011 575.873L81.1255 587.012L88.4396 608.952L79.9372 627.044L87.6808 634.515L87.194 650.915L91.7336 676.876L104.909 688.371L97.7274 702.64L73.8788 709.173L55.0682 708.615L54.6387 723.085L37.4853 731.748L37.1131 744.288L17.4408 756.497L4.57377 783.39L4.0011 802.683L15.4293 824.263L22.815 843.793L43.5956 851.168L61.7691 873.19L75.3986 885.663L91.9434 897.499L118.98 905.542L152.26 906.53L175.501 896.117L184.163 888.891L194.975 882.454L206.949 877.499L213.128 872.614L219.076 859.273L224.398 850.742L237.903 851.142L251.79 854.934L262.401 855.249L274.168 857.288L281.152 865.943L282.478 870.086L292.009 874.231L301.47 880.787L301.241 888.505L304.961 901.408L310.876 905.445L318.032 908.313L328.337 910.791L337.807 908.9L347.694 909.193L348.771 913.57L355.588 911.6L368.788 914.164L374.256 916.982L374.07 923.252L378.026 928.197L389.44 925.88L396.584 921.024L407.677 921.353L417.423 918.263L429.668 912.351L441.174 906.899L449.758 902.326L456.751 902.534L468.988 896.863L481.046 897.221L489.155 892.393L495.086 887.741L507.627 888.114L515.585 888.35L518.89 890.862L527.053 892.311L533.842 891.305L538.149 884.433L545.625 884.655L549.88 887.678L559.477 889.653L570.981 892.408L592.076 874.397L601.576 861.396L609.076 845.896L617.076 836.396L617.076 825.396L617.076 801.896L620.076 791.897L626.576 782.896L620.076 736.896L626.576 721.396L636.636 711.396L639.308 693.396L650.247 682.949L641.716 677.627L645.591 669.052L645.777 662.782L639.308 661.142L636.636 653.58L668.536 614.585L660.033 608.298L649.663 607.991L641.592 603.406L648.459 599.748L656.028 596.835L664.159 591.283L664.545 578.261L660.173 562.924L660.652 546.766L665.526 545.221L670.769 539.343L671.177 525.597L673.541 519.15L676.537 507.653L676.96 493.424L674.65 481.77L669.077 474.363L675.059 468.023L679.538 455.363L680.003 439.688L676.318 425.579L666.574 420.462L663.3 408.779L667.147 401.169L675.687 398.043L674.116 385.928L662.55 377.137L654.047 370.85L651.716 359.919L661.563 353.453L661.935 340.912L661.18 325.683L650.323 317.396L632.081 313.958L632.546 298.282L637.465 287.084L645.764 283.951L656.134 284.259L663.868 275.799L663.099 261.052L657.086 252.184L661.757 241.219L657.938 223.486L632.485 210.903L614.309 197.088L567.282 195.692L561.573 192.867L554.338 192.653L549.615 189.133L548.412 180.891L545.62 169.222L545.878 160.54L541.028 153.155L540.775 145.423L537.394 137.358L537.716 126.505L532.484 115.73L521.766 119.032L514.994 111.349L515.194 104.596L520.712 105.725L522.539 92.9867L516.085 90.8641L505.416 92.4784L497.317 88.8588L500.058 77.8369L500.208 72.7725L488.391 72.4218L483.668 68.9023L483.976 58.5324L480.638 49.0197L465.927 48.583L455.153 45.6081L455.375 38.1321L446.453 37.8673L436.142 27.4235L434.287 16.748L430.693 7.71046L418.308 10.2393L407.599 5.09397L390.555 1.93295L373.595 4.08464L359.414 10.1808L345.909 9.77996L334.207 5.57061L325.442 0.000198735L318.226 7.26862L307.933 12.5147L294.11 6.55279L281.235 9.3085L274.652 11.5268L257.842 8.61413L251.281 34.4878L237.49 43.7334Z" fill="#808080"/>
</g>
<defs>
<filter id="filter0_d_6370_17009" x="0" y="0" width="684.004" height="936.197" filterUnits="userSpaceOnUse" color-interpolation-filters="sRGB">
<feFlood flood-opacity="0" result="BackgroundImageFix"/>
<feColorMatrix in="SourceAlpha" type="matrix" values="0 0 0 0 0 0 0 0 0 0 0 0 0 0 0 0 0 0 127 0" result="hardAlpha"/>
<feOffset dy="4"/>
<feGaussianBlur stdDeviation="2"/>
<feComposite in2="hardAlpha" operator="out"/>
<feColorMatrix type="matrix" values="0 0 0 0 0 0 0 0 0 0 0 0 0 0 0 0 0 0 0.25 0"/>
<feBlend mode="normal" in2="BackgroundImageFix" result="effect1_dropShadow_6370_17009"/>
<feBlend mode="normal" in="SourceGraphic" in2="effect1_dropShadow_6370_17009" result="shape"/>
</filter>
</defs>
</svg>
