<svg width="793" height="643" viewBox="0 0 793 643" fill="none" xmlns="http://www.w3.org/2000/svg">
<g filter="url(#filter0_d_6370_17015)">
<path d="M749.35 354.191L737.195 351.947L749.35 338.669L755.334 325.579L764.685 314.732L771.417 302.951L778.71 294.723V268.542V213.936V180.087L775.344 164.192V123.985V108.277L771.417 75.1767V58.7202L769.547 28.238V16.4566L765.994 4.48822L754.773 0L704.469 2.80511L671.742 4.48822H622.373L588.711 7.29327L550.249 29.3601L542.768 23.937L533.605 22.0668L520.14 20.9448L517.522 25.994H511.538L503.497 11.2205H486.853L463.29 16.0826L427.945 18.7007L395.032 22.2538H372.591L369.225 30.1082L364.737 25.246H347.719L286.38 33.4742L244.304 37.2144L229.343 40.9545L201.292 43.5726L196.056 48.9958H178.852L168.94 52.1749H153.793L147.808 55.5411H133.222L129.669 60.2162H107.602L102.553 63.3953H53.744L44.5806 61.5252L32.6122 53.2969L27.1891 49.5568H15.9687L14.6596 54.793L6.61835 54.045L4.00031 60.5902L5.49634 78.1689L10.5455 84.527V92.9423L16.7167 97.8046L20.0828 104.724L28.498 111.269V131.84L25.3189 151.475L35.7913 154.842V163.631H18.5867L13.5377 177.469L10.5455 190.186L21.2048 193.178L39.9056 198.04L52.996 206.081L57.8582 211.505L67.0214 215.806L69.0786 222.725L78.0548 225.343L81.047 231.327L89.0883 233.945L92.8284 241.8L98.9996 247.223L109.285 244.418H129.669H151.736L154.541 249.841V257.134L159.216 265.176V277.892L163.143 284.063L165.948 294.723L172.306 308.187L176.607 314.358H187.454L199.796 318.285V331.189L197.552 337.547L199.796 352.695L203.723 359.801L207.838 366.159L208.773 382.242L213.635 397.576L217.001 402.999L214.57 406.927L207.838 409.732V423.383L203.723 429.554L199.609 438.718L193.625 444.515L192.129 449.564L185.958 453.865L187.454 467.143L193.625 472.379V478.737L196.804 488.648V499.495V512.959L193.625 520.066L189.885 525.676L192.129 546.06L189.885 552.418L187.08 555.41V561.768L192.129 567.939L189.885 572.988L183.714 579.347V586.827L195.869 599.543L202.788 607.398L212.139 613.756L217.562 622.732L223.172 626.098L247.483 628.529L267.867 626.098L276.843 622.732L290.869 626.098L308.073 628.529H352.207H373.152L384.746 631.709H434.491H480.121H503.123L532.483 634.14L557.168 631.709L632.658 624.976H666.693L690.817 634.14L788.809 533.343L779.832 365.037L762.815 357.931L749.35 354.191Z" fill="#808080"/>
</g>
<defs>
<filter id="filter0_d_6370_17015" x="0" y="0" width="792.809" height="642.14" filterUnits="userSpaceOnUse" color-interpolation-filters="sRGB">
<feFlood flood-opacity="0" result="BackgroundImageFix"/>
<feColorMatrix in="SourceAlpha" type="matrix" values="0 0 0 0 0 0 0 0 0 0 0 0 0 0 0 0 0 0 127 0" result="hardAlpha"/>
<feOffset dy="4"/>
<feGaussianBlur stdDeviation="2"/>
<feComposite in2="hardAlpha" operator="out"/>
<feColorMatrix type="matrix" values="0 0 0 0 0 0 0 0 0 0 0 0 0 0 0 0 0 0 0.25 0"/>
<feBlend mode="normal" in2="BackgroundImageFix" result="effect1_dropShadow_6370_17015"/>
<feBlend mode="normal" in="SourceGraphic" in2="effect1_dropShadow_6370_17015" result="shape"/>
</filter>
</defs>
</svg>
