<svg width="1324" height="638" viewBox="0 0 1324 638" fill="none" xmlns="http://www.w3.org/2000/svg">
<g filter="url(#filter0_d_6411_3921)">
<path d="M171.5 601.5L223.5 630L258.5 596.5L375.5 581.5L409 569.5L427 596.5H465.5L502.5 569.5L557.5 581.5L591 596.5L617.5 584.5L637 570.5L664.5 573.5L690 584.5L703 596.5H748L802.5 581.5H846.5H880H910L963.5 558L1025.5 569.5L1070.5 581.5L1092.5 569.5H1137.5L1187.5 581.5L1232.5 569.5L1269.5 529.5V487.5V457.5L1289.5 432.5V397.5H1269.5V370.5L1289.5 329L1299.5 292L1279.5 262H1308L1319.5 222L1269.5 185L1289.5 127V81.5V45L1265.5 26H1233L1209.5 45L1149 29.5L1039 45L998.5 13L943 6L863.5 22.5L829.5 53.5L779 45L710 37L697.5 45H675V27L599.5 22L552 27L538 37L516 27L488 42H457.5L441.5 27H418L398 20V0L355 6L314 20L273.5 6L234.5 20L228 55.5H196L168 45L130.5 37.5L90.5 27L48 37.5L39.5 54.5L31 78L39.5 100L33.5 115.5L17.5 120.5V144.5V161.5V177L33.5 181.5L62 195.5V212L39.5 226V251.5L17.5 259.5L9 270L17.5 294V330.5L22.5 349H4L9 363.5L17.5 387.5L33.5 406L72.5 420.5L48 432L62 447.5L50.5 466.5L17.5 473.5L9 491V509L22.5 525.5L40.5 537.5L50.5 553L62 569.5V584.5L112.5 608.5H144L171.5 601.5Z" fill="#808080"/>
</g>
<defs>
<filter id="filter0_d_6411_3921" x="0" y="0" width="1323.5" height="638" filterUnits="userSpaceOnUse" color-interpolation-filters="sRGB">
<feFlood flood-opacity="0" result="BackgroundImageFix"/>
<feColorMatrix in="SourceAlpha" type="matrix" values="0 0 0 0 0 0 0 0 0 0 0 0 0 0 0 0 0 0 127 0" result="hardAlpha"/>
<feOffset dy="4"/>
<feGaussianBlur stdDeviation="2"/>
<feComposite in2="hardAlpha" operator="out"/>
<feColorMatrix type="matrix" values="0 0 0 0 0 0 0 0 0 0 0 0 0 0 0 0 0 0 0.25 0"/>
<feBlend mode="normal" in2="BackgroundImageFix" result="effect1_dropShadow_6411_3921"/>
<feBlend mode="normal" in="SourceGraphic" in2="effect1_dropShadow_6411_3921" result="shape"/>
</filter>
</defs>
</svg>
