<svg width="1290" height="623" viewBox="0 0 1290 623" fill="none" xmlns="http://www.w3.org/2000/svg">
<g filter="url(#filter0_d_6411_3903)">
<path d="M130.5 609L153.5 597L183.5 591L227.5 615L245 597L316.5 563.5L377.5 578L413.5 597L432.5 573.5L489 570L544 582L577.5 597L607.5 558.5H632.5L649.5 582L694.5 585L734.5 597L772 592.5L801.5 570L833 582L871 573.5L896.5 582L950 558.5L1012 570L1057 582L1079 570H1124L1174 582L1204.5 586.5L1222 550L1256 530V488V458L1276 433V398H1256V371L1276 329.5L1286 292.5L1266 262.5L1278.5 242L1286 206V174H1271.5L1256 185.5L1276 127.5V82L1269.5 62L1253 55.5L1239 42.5H1209L1185 34.5L1155 39L1117.5 35.5L1025.5 45.5L985 13.5L955.5 10L918 21.5L904.5 0H870L846 21.5L814 39.5L765.5 45.5L717 34L687 27L647.5 13.5L606.5 10L587.5 45.5L547 34L520 45.5L489.5 34H466.5L461.5 53L414 45.5L364 59L330.5 53L304 38L283 27.5L271.5 12L258.5 0.5L244.5 7V27.5L236 45.5L214.5 56L172 50.5L134 56L108 45L73.5 39L45 50.5L34.5 78.5L13.5 94.5L26 116.5L40.5 127L53.5 145.5L40.5 151.5L26 154L8.5 164L4 177.5L20 182L8.5 196.5L17 211L34.5 226L26 252L34.5 265.5L53.5 275.5L70.5 293.5L64 317L48.5 329L34.5 346L48.5 373.5H20L4 388L20 406.5L37 416.5L28 425.5V443.5L34.5 455.5L28 474L20 489.5L37 503L64 511.5L69 534.5L59 553L34.5 569L48.5 585H99.5L130.5 609Z" fill="#808080"/>
</g>
<defs>
<filter id="filter0_d_6411_3903" x="0" y="0" width="1290" height="623" filterUnits="userSpaceOnUse" color-interpolation-filters="sRGB">
<feFlood flood-opacity="0" result="BackgroundImageFix"/>
<feColorMatrix in="SourceAlpha" type="matrix" values="0 0 0 0 0 0 0 0 0 0 0 0 0 0 0 0 0 0 127 0" result="hardAlpha"/>
<feOffset dy="4"/>
<feGaussianBlur stdDeviation="2"/>
<feComposite in2="hardAlpha" operator="out"/>
<feColorMatrix type="matrix" values="0 0 0 0 0 0 0 0 0 0 0 0 0 0 0 0 0 0 0.25 0"/>
<feBlend mode="normal" in2="BackgroundImageFix" result="effect1_dropShadow_6411_3903"/>
<feBlend mode="normal" in="SourceGraphic" in2="effect1_dropShadow_6411_3903" result="shape"/>
</filter>
</defs>
</svg>
