<svg width="1319" height="638" viewBox="0 0 1319 638" fill="none" xmlns="http://www.w3.org/2000/svg">
<g filter="url(#filter0_d_6411_3915)">
<path d="M166.5 601.5L218.5 630L253.5 596.5L370.5 581.5L404 569.5L422 596.5H460.5L497.5 569.5L552.5 581.5L586 596.5L616 558H641L658 581.5L698 596.5H743H800.5L841.5 581.5L888 569.5L905 581.5L941.5 549L976.5 569.5L1006 581.5L1064.5 593.5L1090 577.5L1132.5 569.5L1182.5 581.5L1227.5 569.5L1264.5 529.5V487.5V457.5L1284.5 432.5V397.5H1264.5V370.5L1284.5 329L1294.5 292L1274.5 262H1303L1314.5 222L1264.5 185L1284.5 127V81.5V45L1247.5 39L1212 51.5L1166 45L1126 35L1034 45L993.5 13L935 31.5L875 0.5L845.5 4.5L806.5 0.5L776 10.5L737 16.5L704.5 10.5L686 16.5L670 27H619.5L578 16.5L527 52.5L533 37L481 21.5L460.5 29L470 52.5L422.5 45H399L381.5 27L371 9L350.5 0L339 27L299.5 20L258 0L244 5.5L228.5 27L209 43L177.5 50L151 58.5L125.5 55.5L102 50L84.5 55.5V71L75 95.5L57 103V123.5L28.5 135.5L34.5 151.5L28.5 161.5L12.5 171.5L21 189.5L41 195.5H57V212L34.5 226L21 247.5L15.5 270L18 288.5L34.5 302L37.5 320L57 328.5L43 345.5L37.5 366.5L67.5 377.5L45.5 390L28.5 406L21 422L23 437L34.5 447L45.5 466.5L37.5 483.5L4 491L34.5 520L57 534H77.5L67.5 552.5L43 568.5L57 584.5L107.5 608.5H139L166.5 601.5Z" fill="#808080"/>
</g>
<defs>
<filter id="filter0_d_6411_3915" x="0" y="0" width="1318.5" height="638" filterUnits="userSpaceOnUse" color-interpolation-filters="sRGB">
<feFlood flood-opacity="0" result="BackgroundImageFix"/>
<feColorMatrix in="SourceAlpha" type="matrix" values="0 0 0 0 0 0 0 0 0 0 0 0 0 0 0 0 0 0 127 0" result="hardAlpha"/>
<feOffset dy="4"/>
<feGaussianBlur stdDeviation="2"/>
<feComposite in2="hardAlpha" operator="out"/>
<feColorMatrix type="matrix" values="0 0 0 0 0 0 0 0 0 0 0 0 0 0 0 0 0 0 0.25 0"/>
<feBlend mode="normal" in2="BackgroundImageFix" result="effect1_dropShadow_6411_3915"/>
<feBlend mode="normal" in="SourceGraphic" in2="effect1_dropShadow_6411_3915" result="shape"/>
</filter>
</defs>
</svg>
