<svg width="1304" height="639" viewBox="0 0 1304 639" fill="none" xmlns="http://www.w3.org/2000/svg">
<g filter="url(#filter0_d_6411_3909)">
<path d="M166.5 602L218.5 630.5L253.5 597L370.5 582L404 570L422 597H460.5L497.5 570L552.5 582L586 597L616 558.5H641L658 582L698 597H743L810 570L841.5 582H875H905L958.5 558.5L1020.5 570L1065.5 582L1087.5 570H1132.5L1182.5 582L1227.5 570L1241 556.5L1244.5 528L1274 499.5L1264.5 458L1284.5 433V398H1264.5V371L1284.5 329.5L1294.5 292.5L1274.5 262.5L1300 215L1294.5 172L1264.5 185.5V151.5L1284.5 127.5L1247 92L1252 53.5L1204.5 35.5H1126L1034 45.5L993.5 13.5L878.5 0L774 45.5L705 37.5L692.5 45.5H670V27.5L596 45.5L527 53L533 37.5L511 27.5L470 53V27.5H435.5L371 45.5V27.5L393 20.5V0.5L350 6.5L305 20.5L258.5 35L223 56L154.5 67L125.5 56L102 50.5L84.5 56L67.5 78.5H43L22 94.5L34.5 116.5L67.5 132L57 154H34.5L12.5 162V177.5L28.5 182L30 198L24 210V236.5L34.5 252L12.5 260L4 270.5L12.5 294.5L32 318.5L36.5 330.5L34.5 351.5L43 368.5L28.5 373.5L12.5 388L28.5 406.5L43 413.5V432.5L57 448L45.5 467L12.5 474L4 491.5L28.5 504.5L49.5 528.5L63.5 540.5L67.5 558L54 569.5L57 585L107.5 609H139L166.5 602Z" fill="#808080"/>
</g>
<defs>
<filter id="filter0_d_6411_3909" x="0" y="0" width="1304" height="638.5" filterUnits="userSpaceOnUse" color-interpolation-filters="sRGB">
<feFlood flood-opacity="0" result="BackgroundImageFix"/>
<feColorMatrix in="SourceAlpha" type="matrix" values="0 0 0 0 0 0 0 0 0 0 0 0 0 0 0 0 0 0 127 0" result="hardAlpha"/>
<feOffset dy="4"/>
<feGaussianBlur stdDeviation="2"/>
<feComposite in2="hardAlpha" operator="out"/>
<feColorMatrix type="matrix" values="0 0 0 0 0 0 0 0 0 0 0 0 0 0 0 0 0 0 0.25 0"/>
<feBlend mode="normal" in2="BackgroundImageFix" result="effect1_dropShadow_6411_3909"/>
<feBlend mode="normal" in="SourceGraphic" in2="effect1_dropShadow_6411_3909" result="shape"/>
</filter>
</defs>
</svg>
